<mxfile host="app.diagrams.net" modified="2024-06-10T02:46:23.694Z" agent="Mozilla/5.0 (Macintosh; Intel Mac OS X 10_15_7) AppleWebKit/537.36 (KHTML, like Gecko) Chrome/125.0.0.0 Safari/537.36" version="24.4.9" etag="mCEzkbGbzxW4K94LeXT3" type="github">
  <diagram name="페이지-1" id="Qz94WcIaOdJuUz3AZ1zA">
    <mxGraphModel>
      <root>
        <mxCell id="0" />
        <mxCell id="1" parent="0" />
      </root>
    </mxGraphModel>
  </diagram>
</mxfile>
